<svg width="24" height="19" viewBox="0 0 24 19" fill="none" xmlns="http://www.w3.org/2000/svg">
<path d="M21.3105 0.16737C21.3105 0.16737 23.415 -0.653255 23.2396 1.33969C23.1812 2.16033 22.655 5.03252 22.2458 8.13919L20.8428 17.3419C20.8428 17.3419 20.7259 18.6901 19.6736 18.9246C18.6213 19.159 17.0429 18.104 16.7506 17.8695C16.5168 17.6937 12.3662 15.0559 10.9047 13.7663C10.4954 13.4146 10.0278 12.7112 10.9631 11.8906L17.1014 6.02902C17.8029 5.32561 18.5044 3.68436 15.5814 5.67732L7.3971 11.2459C7.3971 11.2459 6.46175 11.832 4.70799 11.3045L0.908103 10.1321C0.908103 10.1321 -0.494928 9.25291 1.90192 8.37362C7.74788 5.61865 14.9384 2.80508 21.3105 0.16737Z" fill="#273A48"/>
</svg>
