<svg width="22" height="22" viewBox="0 0 22 22" fill="none" xmlns="http://www.w3.org/2000/svg">
<path d="M16.1667 1H5.33333C2.9401 1 1 2.9401 1 5.33333V16.1667C1 18.5599 2.9401 20.5 5.33333 20.5H16.1667C18.5599 20.5 20.5 18.5599 20.5 16.1667V5.33333C20.5 2.9401 18.5599 1 16.1667 1Z" fill="#273A48" stroke="#273A48" stroke-width="1.08333" stroke-linejoin="round"/>
<path d="M10.7552 15.0837C13.1485 15.0837 15.0885 13.1436 15.0885 10.7503C15.0885 8.35708 13.1485 6.41699 10.7552 6.41699C8.36196 6.41699 6.42188 8.35708 6.42188 10.7503C6.42188 13.1436 8.36196 15.0837 10.7552 15.0837Z" fill="white" stroke="white" stroke-width="1.08333" stroke-linejoin="round"/>
<path d="M16.7083 5.87467C17.3067 5.87467 17.7917 5.38967 17.7917 4.79134C17.7917 4.19302 17.3067 3.70801 16.7083 3.70801C16.11 3.70801 15.625 4.19302 15.625 4.79134C15.625 5.38967 16.11 5.87467 16.7083 5.87467Z" fill="white"/>
</svg>
