<svg width="20" height="23" viewBox="0 0 20 23" fill="none" xmlns="http://www.w3.org/2000/svg">
<path d="M8.64375 8.74944C5.45409 8.59555 3.23694 9.73278 1.99229 12.1611C0.125329 15.8036 1.6683 21.7639 7.89668 21.7639C14.1251 21.7639 14.3052 15.7453 14.3052 15.1148C14.3052 14.6945 14.3052 12.3442 14.3052 8.06406C15.6374 8.90782 16.7606 9.41574 17.6748 9.58783C18.5891 9.75986 19.1702 9.83613 19.4184 9.81657V6.3089C18.5728 6.20696 17.8416 6.01261 17.2247 5.72596C16.2993 5.29599 14.4643 4.10259 14.4643 2.35353C14.4656 2.36209 14.4656 1.91091 14.4643 1H10.6088C10.5973 9.56703 10.5973 14.2719 10.6088 15.1148C10.626 16.3791 9.64518 18.1477 7.65656 18.1477C5.66794 18.1477 4.68714 16.3805 4.68714 15.2408C4.68714 14.543 4.92683 13.5316 5.91759 12.7826C6.50514 12.3385 7.32062 12.1611 8.64375 12.1611C8.64375 11.7518 8.64375 10.6146 8.64375 8.74944Z" fill="#273A48" stroke="#273A48" stroke-width="1.08333" stroke-linejoin="round"/>
</svg>
